<mxfile host="app.diagrams.net" modified="2023-12-18T09:46:23.412Z" agent="Mozilla/5.0 (Linux; Android 12; Lenovo TB125FU Build/SP1A.210812.016) AppleWebKit/537.36 (KHTML, like Gecko) Chrome/120.0.6099.43 Safari/537.36 OPX/2.2" version="22.1.11" etag="3t6Rohd5nIxwriVW0uy7" type="github">
  <diagram name="Page-1" id="bnZvnffgsT4zmRBzY-Aa">
    <mxGraphModel>
      <root>
        <mxCell id="0" />
        <mxCell id="1" parent="0" />
      </root>
    </mxGraphModel>
  </diagram>
</mxfile>
